<svg width="20" height="20" viewBox="0 0 20 20" fill="none" xmlns="http://www.w3.org/2000/svg">
<path d="M16.6693 8.33333V5.83333C16.6693 4.91286 15.9231 4.16667 15.0026 4.16667H5.0026C4.08213 4.16667 3.33594 4.91286 3.33594 5.83333V8.33333M16.6693 8.33333V15.8333C16.6693 16.7538 15.9231 17.5 15.0026 17.5H5.0026C4.08213 17.5 3.33594 16.7538 3.33594 15.8333V8.33333M16.6693 8.33333H3.33594M6.66927 2.5V5.83333M13.3359 2.5V5.83333" stroke="#8642DE" stroke-width="1.66667" stroke-linecap="round"/>
<path d="M7.08333 10H5.41667C5.18655 10 5 10.1865 5 10.4167V12.0833C5 12.3135 5.18655 12.5 5.41667 12.5H7.08333C7.31345 12.5 7.5 12.3135 7.5 12.0833V10.4167C7.5 10.1865 7.31345 10 7.08333 10Z" fill="#8642DE"/>
<path d="M10.8333 10H9.16667C8.93655 10 8.75 10.1865 8.75 10.4167V12.0833C8.75 12.3135 8.93655 12.5 9.16667 12.5H10.8333C11.0635 12.5 11.25 12.3135 11.25 12.0833V10.4167C11.25 10.1865 11.0635 10 10.8333 10Z" fill="#8642DE"/>
<path d="M14.5833 10H12.9167C12.6865 10 12.5 10.1865 12.5 10.4167V12.0833C12.5 12.3135 12.6865 12.5 12.9167 12.5H14.5833C14.8135 12.5 15 12.3135 15 12.0833V10.4167C15 10.1865 14.8135 10 14.5833 10Z" fill="#8642DE"/>
</svg>
