<svg width="39" height="39" viewBox="0 0 39 39" fill="none" xmlns="http://www.w3.org/2000/svg">
<rect x="0.478365" y="0.478365" width="37.3125" height="37.3125" rx="18.6563" stroke="white" stroke-width="0.956731"/>
<path d="M19.1316 22.9663C20.1466 22.9663 21.12 22.5632 21.8377 21.8455C22.5553 21.1278 22.9585 20.1544 22.9585 19.1394C22.9585 18.1245 22.5553 17.1511 21.8377 16.4334C21.12 15.7157 20.1466 15.3125 19.1316 15.3125C18.1166 15.3125 17.1433 15.7157 16.4256 16.4334C15.7079 17.1511 15.3047 18.1245 15.3047 19.1394C15.3047 20.1544 15.7079 21.1278 16.4256 21.8455C17.1433 22.5632 18.1166 22.9663 19.1316 22.9663V22.9663Z" stroke="white" stroke-width="1.4351" stroke-linecap="round" stroke-linejoin="round"/>
<path d="M10.5234 22.9687V15.3149C10.5234 14.0462 11.0274 12.8295 11.9245 11.9323C12.8216 11.0352 14.0384 10.5312 15.3071 10.5312H22.9609C24.2296 10.5312 25.4464 11.0352 26.3435 11.9323C27.2406 12.8295 27.7446 14.0462 27.7446 15.3149V22.9687C27.7446 24.2375 27.2406 25.4542 26.3435 26.3513C25.4464 27.2484 24.2296 27.7524 22.9609 27.7524H15.3071C14.0384 27.7524 12.8216 27.2484 11.9245 26.3513C11.0274 25.4542 10.5234 24.2375 10.5234 22.9687Z" stroke="white" stroke-width="1.4351"/>
<path d="M24.3984 13.8856L24.408 13.875" stroke="white" stroke-width="1.4351" stroke-linecap="round" stroke-linejoin="round"/>
</svg>
