<svg width="39" height="39" viewBox="0 0 39 39" fill="none" xmlns="http://www.w3.org/2000/svg">
<rect x="0.74399" y="1.21274" width="37.3125" height="37.3125" rx="18.6563" stroke="white" stroke-width="0.956731"/>
<path d="M29.9231 11.2674C29.9231 11.2674 27.9924 12.4079 26.9189 12.7312C26.3427 12.0687 25.577 11.5991 24.7252 11.386C23.8734 11.1729 22.9767 11.2265 22.1564 11.5396C21.3361 11.8527 20.6317 12.4102 20.1386 13.1366C19.6454 13.8631 19.3873 14.7235 19.399 15.6014V16.5582C17.7177 16.6018 16.0517 16.2289 14.5494 15.4727C13.0471 14.7165 11.7551 13.6006 10.7885 12.2242C10.7885 12.2242 6.96154 20.8347 15.5721 24.6617C13.6018 25.9991 11.2545 26.6698 8.875 26.5751C17.4856 31.3588 28.0096 26.5751 28.0096 15.5727C28.0096 15.3068 27.9828 15.0408 27.9331 14.7786C28.9089 13.8162 29.9231 11.2674 29.9231 11.2674Z" stroke="white" stroke-width="1.4351" stroke-linecap="round" stroke-linejoin="round"/>
</svg>
