<svg width="39" height="39" viewBox="0 0 39 39" fill="none" xmlns="http://www.w3.org/2000/svg">
<rect x="0.74399" y="0.478365" width="37.3125" height="37.3125" rx="18.6563" stroke="white" stroke-width="0.956731"/>
<path d="M21.3173 19.1322L17.9688 21.0457V17.2188L21.3173 19.1322Z" fill="white" stroke="white" stroke-width="1.4351" stroke-linecap="round" stroke-linejoin="round"/>
<path d="M9.83594 19.8051V18.4514C9.83594 15.6816 9.83594 14.2963 10.7018 13.4056C11.5686 12.5139 12.9329 12.4756 15.6605 12.3981C16.9521 12.3618 18.2724 12.3359 19.4032 12.3359C20.5331 12.3359 21.8534 12.3618 23.146 12.3981C25.8736 12.4756 27.2379 12.5139 28.1038 13.4056C28.9706 14.2963 28.9706 15.6826 28.9706 18.4514V19.8051C28.9706 22.5758 28.9706 23.9602 28.1047 24.8519C27.2379 25.7426 25.8746 25.7818 23.146 25.8584C21.8544 25.8957 20.5341 25.9215 19.4032 25.9215C18.1554 25.9178 16.9077 25.8967 15.6605 25.8584C12.9329 25.7818 11.5686 25.7436 10.7018 24.8519C9.83594 23.9602 9.83594 22.5749 9.83594 19.8061V19.8051Z" stroke="white" stroke-width="1.4351"/>
</svg>
