<svg width="34" height="34" viewBox="0 0 34 34" fill="none" xmlns="http://www.w3.org/2000/svg">
<g clip-path="url(#clip0_177_2066)">
<path d="M26.2729 14.1115C25.8703 11.5807 22.7068 8.87741 20.2336 8.81989C20.061 8.81989 19.8885 8.76237 19.7734 8.64734C19.6584 8.58982 19.5434 8.5323 19.4859 8.35975C18.6231 6.74926 19.0832 5.48388 20.5212 4.44856C22.1892 3.24069 24.835 4.44856 26.1579 5.54139C29.4939 8.30223 32.8874 13.0761 32.7149 17.6201C33.2901 20.6686 33.175 23.947 32.3123 26.6503C31.7371 28.3758 30.0691 29.2386 28.3436 29.3536C26.618 29.4688 23.0519 29.9863 21.499 28.9511C19.946 27.9157 19.831 25.9026 19.6584 24.1772C19.4859 22.2791 18.9682 18.7129 20.5787 17.2174C22.1892 15.7795 26.7906 17.3325 26.2729 14.1115Z" fill="#CFB3F2"/>
<path d="M7.29636 14.1115C6.89373 11.5807 3.73037 8.87741 1.25702 8.81989C1.08447 8.81989 0.911915 8.76237 0.79688 8.64734C0.681751 8.58982 0.56681 8.5323 0.509198 8.35975C-0.353564 6.74926 0.106575 5.48388 1.54451 4.44856C3.21252 3.24069 5.85832 4.44856 7.18132 5.54139C10.5173 8.30223 13.9109 13.0762 13.7383 17.6201C14.3135 20.6686 14.1985 23.947 13.3358 26.6503C12.7606 28.3758 11.0926 29.2386 9.36699 29.3536C7.64146 29.4688 4.07538 29.9863 2.5224 28.9511C0.969526 27.9157 0.854398 25.9026 0.681845 24.1772C0.509293 22.2791 -0.00836524 18.7129 1.60212 17.2174C3.21261 15.7795 7.87153 17.3325 7.29636 14.1115Z" fill="#CFB3F2"/>
</g>
<defs>
<clipPath id="clip0_177_2066">
<rect width="33" height="33" fill="white" transform="matrix(-1 0 0 1 33.0703 0.265625)"/>
</clipPath>
</defs>
</svg>
